HIERARCHY
ROOT root
{
	OFFSET 0.000000 0.000000 0.000000
	CHANNELS 6 Xposition Yposition Zposition Zrotation Yrotation Xrotation
	JOINT lhip
	{
		OFFSET 0.058581 -0.082280 -0.017664
		CHANNELS 3 Zrotation Yrotation Xrotation
		JOINT lknee
		{
			OFFSET 0.043451 -0.386469 0.008037
			CHANNELS 3 Zrotation Yrotation Xrotation
			JOINT lankle
			{
				OFFSET -0.014790 -0.426874 -0.037428
				CHANNELS 3 Zrotation Yrotation Xrotation
				JOINT ltoe
				{
					OFFSET 0.041054 -0.060286 0.122042
					CHANNELS 3 Zrotation Yrotation Xrotation
					End Site
					{
						OFFSET 0.000000 0.000000 0.000000
					}
				}
			}
		}
	}
	JOINT rhip
	{
		OFFSET -0.060310 -0.090513 -0.013543
		CHANNELS 3 Zrotation Yrotation Xrotation
		JOINT rknee
		{
			OFFSET -0.043257 -0.383688 -0.004843
			CHANNELS 3 Zrotation Yrotation Xrotation
			JOINT rankle
			{
				OFFSET 0.019056 -0.420046 -0.034562
				CHANNELS 3 Zrotation Yrotation Xrotation
				JOINT rtoe
				{
					OFFSET -0.034840 -0.062106 0.130323
					CHANNELS 3 Zrotation Yrotation Xrotation
					End Site
					{
						OFFSET 0.000000 0.000000 0.000000
					}
				}
			}
		}
	}
	JOINT lowerback
	{
		OFFSET 0.004439 0.124404 -0.038385
		CHANNELS 3 Zrotation Yrotation Xrotation
		JOINT upperback
		{
			OFFSET 0.004488 0.137956 0.026820
			CHANNELS 3 Zrotation Yrotation Xrotation
			JOINT chest
			{
				OFFSET -0.002265 0.056032 0.002855
				CHANNELS 3 Zrotation Yrotation Xrotation
				JOINT lowerneck
				{
					OFFSET -0.013390 0.211636 -0.033468
					CHANNELS 3 Zrotation Yrotation Xrotation
					JOINT upperneck
					{
						OFFSET 0.010113 0.088937 0.050410
						CHANNELS 3 Zrotation Yrotation Xrotation
						End Site
						{
							OFFSET 0.000000 0.000000 0.000000
						}
					}
				}
				JOINT lclavicle
				{
					OFFSET 0.071702 0.114000 -0.018898
					CHANNELS 3 Zrotation Yrotation Xrotation
					JOINT lshoulder
					{
						OFFSET 0.122921 0.045205 -0.019046
						CHANNELS 3 Zrotation Yrotation Xrotation
						JOINT lelbow
						{
							OFFSET 0.255332 -0.015649 -0.022946
							CHANNELS 3 Zrotation Yrotation Xrotation
							JOINT lwrist
							{
								OFFSET 0.265709 0.012698 -0.007375
								CHANNELS 3 Zrotation Yrotation Xrotation
								End Site
								{
									OFFSET 0.000000 0.000000 0.000000
								}
							}
						}
					}
				}
				JOINT rclavicle
				{
					OFFSET -0.082954 0.112472 -0.023707
					CHANNELS 3 Zrotation Yrotation Xrotation
					JOINT rshoulder
					{
						OFFSET -0.113228 0.046853 -0.008472
						CHANNELS 3 Zrotation Yrotation Xrotation
						JOINT relbow
						{
							OFFSET -0.260127 -0.014369 -0.031269
							CHANNELS 3 Zrotation Yrotation Xrotation
							JOINT rwrist
							{
								OFFSET -0.269108 0.006794 -0.006027
								CHANNELS 3 Zrotation Yrotation Xrotation
								End Site
								{
									OFFSET 0.000000 0.000000 0.000000
								}
							}
						}
					}
				}
			}
		}
	}
}
MOTION
Frames: 5
Frame Time: 0.033333
-0.016555 0.276487 0.967008 126.565074 -2.251918 73.616870 -4.747425 -6.400505 -4.341028 -8.580401 -16.099545 32.025463 2.492192 0.577318 -12.885664 0.000000 -0.000000 0.000000 -9.535743 -11.931752 3.731555 -7.536368 -17.060342 37.624050 2.099478 -12.516046 -20.541186 0.000000 -0.000000 0.000000 -0.157834 9.032022 23.090566 -1.005093 -1.140047 15.183136 -0.676881 4.787519 3.891809 7.776555 -7.272333 27.064228 14.310453 -7.253396 24.430542 -20.535360 -10.411505 6.699614 -61.832868 0.618256 12.284463 38.300390 -73.320888 -17.041582 1.996946 -3.572703 -18.295915 19.591427 18.344131 9.473280 68.020568 1.353634 8.286730 -37.314649 57.173265 -0.558988 17.558469 -19.720364 29.025154 
-0.015509 0.285188 0.969773 125.465229 -2.879164 73.861955 -5.102476 -6.295133 -3.361626 -8.773243 -15.020708 30.222795 2.655766 0.791115 -12.329374 0.000000 -0.000000 0.000000 -10.407009 -11.563199 4.072330 -7.367914 -16.416501 36.641969 2.277652 -12.180518 -20.110018 0.000000 -0.000000 0.000000 0.379999 9.021472 20.696646 -0.556701 -0.843688 14.589823 -0.832329 4.647477 4.283655 7.075902 -7.381245 26.504545 13.297345 -7.933352 24.422211 -19.985845 -10.020601 6.047954 -62.417426 -0.202590 12.696553 31.140023 -71.036483 -10.709470 -0.015166 -3.804164 -18.545673 19.218115 17.272193 8.818994 68.275292 1.821730 8.961004 -34.721386 55.710018 2.232511 18.999762 -20.710883 29.153583 
-0.013908 0.292825 0.972820 124.013457 -3.313099 74.296433 -5.329643 -6.159946 -2.552558 -8.811629 -14.164536 28.529203 2.710506 1.167311 -11.918202 0.000000 -0.000000 0.000000 -10.924849 -11.148752 4.198054 -7.087118 -15.700941 35.411760 2.584432 -11.886655 -19.565540 0.000000 -0.000000 0.000000 0.799097 8.562970 18.754189 -0.343523 -0.692313 13.174010 -1.049288 4.655466 4.776012 6.322844 -7.524812 25.692255 11.954838 -8.459955 24.701939 -19.394180 -8.962401 5.018352 -62.722425 -0.778143 13.297914 24.522493 -68.716157 -4.506706 -1.612087 -3.551349 -17.919583 18.873749 16.038224 7.913917 68.608539 2.245573 10.016454 -31.867911 53.780224 4.763277 20.793264 -21.319390 28.513322 
-0.011879 0.299258 0.976180 122.316669 -3.515319 74.935869 -5.349185 -6.106885 -1.958930 -8.744174 -13.367210 26.928759 2.642241 1.796246 -11.580403 0.000000 -0.000000 0.000000 -11.069561 -10.786751 4.188086 -6.685147 -14.867749 33.926279 2.804628 -11.499180 -18.931855 0.000000 -0.000000 0.000000 1.153438 8.005473 16.828737 -0.150397 -0.683823 11.600074 -1.240482 4.649231 5.289722 5.808728 -7.276362 24.639158 10.632064 -8.944111 25.077073 -18.840567 -7.873146 4.140878 -62.918628 -1.196868 13.789464 18.624290 -66.208820 1.124126 -3.747499 -3.741371 -17.868190 18.573556 14.860637 7.181651 68.876452 2.591593 11.151132 -29.295350 51.876133 7.299128 21.683875 -21.745464 27.826528 
-0.009629 0.304069 0.979844 120.640449 -3.429011 75.691257 -5.096635 -6.099574 -1.477469 -8.546865 -12.739327 25.367084 2.627560 2.125962 -11.175488 0.000000 -0.000000 0.000000 -10.855098 -10.362210 4.160772 -6.256666 -14.388981 32.217407 3.155236 -11.113623 -18.154734 0.000000 -0.000000 0.000000 1.505559 7.370546 15.207059 0.134340 -0.733014 9.808334 -1.304416 4.537954 5.573212 5.336770 -7.036280 23.504788 9.208915 -9.123142 25.636951 -18.351755 -6.875409 3.422886 -63.154967 -1.615215 14.144900 13.344633 -63.414631 6.014465 -6.785274 -3.867883 -17.910981 18.121752 13.544185 6.414471 69.333492 2.804660 12.110492 -26.952437 49.934348 9.557753 22.263685 -21.901143 27.394770 
